<svg xmlns="http://www.w3.org/2000/svg" viewBox="0 0 1024 1024" width="1024" height="1024"><defs><radialGradient id="dfb" cx="0.5" cy="0.45" r="0.7"><stop offset="0" stop-color="#232C1B"/><stop offset="0.55" stop-color="#151A10"/><stop offset="1" stop-color="#10140D"/></radialGradient><radialGradient id="bglowb"><stop offset="0" stop-color="#ffdf9e" stop-opacity="0.55"/><stop offset="0.5" stop-color="#f0a04a" stop-opacity="0.2"/><stop offset="1" stop-color="#b4622a" stop-opacity="0"/></radialGradient><radialGradient id="coreb"><stop offset="0" stop-color="#fff8e0" stop-opacity="1"/><stop offset="0.22" stop-color="#ffe2a0" stop-opacity="0.9"/><stop offset="0.5" stop-color="#f7b45c" stop-opacity="0.45"/><stop offset="1" stop-color="#e8963f" stop-opacity="0"/></radialGradient></defs><rect width="1024" height="1024" fill="url(#dfb)"/><ellipse cx="512" cy="448.5" rx="300" ry="150.0" fill="url(#bglowb)"/><circle cx="512" cy="448.5" r="64" fill="url(#coreb)"/><ellipse cx="512" cy="820" rx="470" ry="40" fill="#000" opacity="0.35"/><g transform="translate(246,806) rotate(0) scale(5.5) translate(-60,-128)"><ellipse cx="60" cy="129" rx="33" ry="7.5" fill="#000" opacity="0.28"/><ellipse cx="60" cy="126" rx="33" ry="7.5" fill="#7FA35C"/><g stroke="#7FA35C" fill="none" stroke-linecap="round" stroke-linejoin="round"><path d="M30 121 L46 109" stroke-width="11"/><path d="M46 111 L56 93" stroke-width="11"/><path d="M56 93 L72 101 L74 119" stroke-width="11"/><path d="M74 120 L84 122" stroke-width="8"/><path d="M54 95 L62 70" stroke-width="16"/><path d="M60 74 L80 70" stroke-width="8"/><path d="M63 79 L90 69" stroke-width="8"/><path d="M47 78 L106 63" stroke-width="4.5"/><path d="M49 78 L44 88" stroke-width="7"/></g><g transform="translate(70,57)"><circle cx="0" cy="0" r="8" fill="#7FA35C"/><path d="M -11 0 a 11 11 0 0 1 22 0 z" fill="#7FA35C"/><rect x="-12.5" y="-2.5" width="25" height="4.5" rx="2.2" fill="#7FA35C"/></g></g><g transform="translate(778,806) rotate(0) scale(5.5) translate(-60,-128)"><g transform="translate(120,0) scale(-1,1)"><ellipse cx="60" cy="129" rx="33" ry="7.5" fill="#000" opacity="0.28"/><ellipse cx="60" cy="126" rx="33" ry="7.5" fill="#C09E6C"/><g stroke="#C09E6C" fill="none" stroke-linecap="round" stroke-linejoin="round"><path d="M30 121 L46 109" stroke-width="11"/><path d="M46 111 L56 93" stroke-width="11"/><path d="M56 93 L72 101 L74 119" stroke-width="11"/><path d="M74 120 L84 122" stroke-width="8"/><path d="M54 95 L62 70" stroke-width="16"/><path d="M60 74 L80 70" stroke-width="8"/><path d="M63 79 L90 69" stroke-width="8"/><path d="M47 78 L106 63" stroke-width="4.5"/><path d="M49 78 L44 88" stroke-width="7"/></g><g transform="translate(70,57)"><circle cx="0" cy="0" r="8" fill="#C09E6C"/><path d="M -11 0 a 11 11 0 0 1 22 0 z" fill="#C09E6C"/><rect x="-12.5" y="-2.5" width="25" height="4.5" rx="2.2" fill="#C09E6C"/></g></g></g></svg>